<svg xmlns="http://www.w3.org/2000/svg" version="1.1" xmlns:xlink="http://www.w3.org/1999/xlink" xmlns:svgjs="http://svgjs.dev/svgjs" width="100%" height="100%" viewBox="0 0 1000 600"><rect width="1000" height="600" x="0" y="0" fill="#121212"/><g><rect width="333.3333333333333" height="333.3333333333333" y="242.21769434301177" fill="#16bdca" transform="matrix(0.5681935010644865,0,0,0.5681935010644864,0,67.67455656688163)" x="219.9954833984375"/><path d="M336.04318192845903 351.93991672265474L336.04318192845903 351.93991672265474L338.15670848552435 333.8843612780114L437.28110401188576 333.8843612780114L437.28110401188576 371.68629341295036L421.2786886512487 373.7092402604271Q416.17603167776247 369.36141420017856 413.18690126134163 357.5558587171425L413.18690126134163 357.5558587171425L379.3402831117677 357.5558587171425L379.3402831117677 397.16938504385166L409.4731331682126 397.16938504385166Q412.250910928927 390.5872594804198 414.90791574352335 388.020834375412L414.90791574352335 388.020834375412L428.58545189138863 389.53049620188716L428.58545189138863 428.2684186692407L414.90791574352335 429.9592399148929Q412.250910928927 427.93629306741616 409.4731331682126 420.84088248298275L409.4731331682126 420.84088248298275L379.3402831117677 420.84088248298275L379.3402831117677 456.92180013573994Q393.8934231189886 460.2128629174559 400.35477573630243 465.8288049119436L400.35477573630243 465.8288049119436L398.2412491792372 483.88436035658697L338.15670848552435 483.88436035658697L336.04318192845903 465.8288049119436Q338.88134616223243 462.11503681881464 348.0298968306721 458.61262138139216L348.0298968306721 458.61262138139216L348.0298968306721 359.2768731993242Q339.0021191083504 356.0763901271968 336.04318192845903 351.93991672265474Z " fill="#f2f2f2f2" transform="matrix(0.5681935010644865,0,0,0.5681935010644864,0,67.67455656688163)"/><path d="M770.2456478811171 458.2335874400817L770.2456478811171 458.2335874400817L770.2456478811171 404.9369896237585Q770.2456478811171 396.7287435429558 771.7561931668204 379.4857266023806L771.7561931668204 379.4857266023806L772.1552051290817 374.58357963745675L770.0461418999864 374.3840736563261Q767.7375726897607 383.10533511717904 765.6285094606656 390.0025418934091Q763.5194462315703 396.92824952408637 761.8093949647365 402.0299024701409L761.8093949647365 402.0299024701409L734.562578113183 482.28830859354525L707.3157612616295 482.28830859354525L678.5583991243727 402.0299024701409Q676.6488418764083 397.4127640496893 674.9102897551271 391.6555914513485Q673.1432367793988 385.89841885300774 671.5471889303537 379.08671464011934L671.5471889303537 379.08671464011934L670.3501530435701 374.3840736563261L668.2410898144749 374.58357963745675Q669.238619720128 383.70385306057085 669.6946333912838 391.2565794890873Q670.1506470624395 398.8093059176037 670.1506470624395 404.9369896237585L670.1506470624395 404.9369896237585L670.1506470624395 458.94610880126254Q677.7603751998503 461.7391925370912 681.3514828602015 466.4703343753317L681.3514828602015 466.4703343753317L679.3564230488953 482.28830859354525L639.1702182782985 482.28830859354525L637.0896559036507 466.4703343753317Q640.8802695451325 461.7391925370912 648.4044951192017 458.94610880126254L648.4044951192017 458.94610880126254L648.4044951192017 364.0667643464283Q639.9682422028211 361.04567377502167 636.6621430869423 356.5425387723591L636.6621430869423 356.5425387723591L638.6857037526956 340.6960636996983L685.4841067550501 340.6960636996983L715.4385047790905 423.3770424511174Q718.3455919327082 430.0747432462168 720.1981474717783 436.34493122460776Q722.0507030108483 442.61511920299876 722.8487269353708 448.2297875291034L722.8487269353708 448.2297875291034L723.4472448787626 451.7353926261129L726.3543320323803 451.7353926261129Q727.0668533935611 439.3090200871199 733.7645541886606 423.3770424511174L733.7645541886606 423.3770424511174L762.236907781445 340.6960636996983L808.2087860048297 340.6960636996983L810.3178492339248 356.5425387723591Q807.0117501180459 361.04567377502167 798.6039980561126 364.0667643464283L798.6039980561126 364.0667643464283L798.6039980561126 458.0340814589511Q806.6127381557847 461.2546780114883 809.9188372716635 465.2447976341007L809.9188372716635 465.2447976341007L807.8097740425684 482.28830859354525L761.011371040214 482.28830859354525L759.0163112289077 465.4443036152313Q762.1229043636561 461.45418399261894 770.2456478811171 458.2335874400817ZM920.445150818028 428.47869539717186L920.445150818028 428.47869539717186Q920.445150818028 448.5147960735757 913.6334466051396 460.6846609225436Q906.8217423922513 472.8830266259588 895.1363920688863 478.3266898253801Q883.4510417455213 483.79885387924855 868.8301034140915 483.79885387924855L868.8301034140915 483.79885387924855Q846.0009190018588 483.79885387924855 833.717050735102 471.62898903028065Q821.4331824683452 459.4306233268655 821.4331824683452 430.6732611896087L821.4331824683452 430.6732611896087Q821.4331824683452 404.8229862059695 835.0280900396747 391.4560854702179Q848.594496756557 378.08918473446624 872.1362025299703 378.08918473446624L872.1362025299703 378.08918473446624Q896.1909236834339 378.08918473446624 908.3037868235074 389.9170393300674Q920.445150818028 401.7163930712213 920.445150818028 428.47869539717186ZM851.302077929044 430.18874666400575L851.302077929044 430.18874666400575Q851.302077929044 462.9362284238749 871.0531700609755 462.9362284238749L871.0531700609755 462.9362284238749Q881.0569699719538 462.9362284238749 885.8736143735359 455.49750541314745Q890.6902587751181 448.0302815479728 890.6902587751181 430.98677058852826L890.6902587751181 430.98677058852826Q890.6902587751181 399.03731275318154 870.5401546809253 399.03731275318154L870.5401546809253 399.03731275318154Q860.7073598966304 399.03731275318154 856.0047189128371 406.0770238016478Q851.302077929044 413.14523570456123 851.302077929044 430.18874666400575ZM1030.543951547684 403.5404477558441L1030.543951547684 403.5404477558441L996.6849364643729 483.485344480329L974.1407605966125 483.485344480329L940.481251494432 403.5404477558441Q930.2494447478757 400.2343486399653 926.7438396508662 395.5032068017248L926.7438396508662 395.5032068017248L928.7674003166196 379.6852325835112L976.050317844577 379.6852325835112L978.0453776558832 395.5032068017248Q975.2522939200545 398.8093059176037 969.2386136316886 401.43138452674896L969.2386136316886 401.43138452674896L980.353946866109 432.3833124564426Q982.1495006962846 437.28545942136645 983.5175417097516 442.04510211405415Q984.8570818687716 446.80474480674184 985.6551057932941 451.53588664498227L985.6551057932941 451.53588664498227L986.0541177555554 454.328970380811L988.9612049091729 454.328970380811Q990.6712561760069 444.01166107091314 994.6898766530664 432.7823244187038L994.6898766530664 432.7823244187038L1005.4917004885674 402.4289144324021Q998.081478332287 399.6358306965734 994.8893826341971 395.5032068017248L994.8893826341971 395.5032068017248L996.8844424455033 379.6852325835112L1042.0867975988128 379.6852325835112L1044.081857410119 395.5032068017248Q1040.376746331979 400.2343486399653 1030.543951547684 403.5404477558441ZM1051.2925735852687 395.5032068017248L1051.2925735852687 395.5032068017248L1053.2876333965748 379.6852325835112Q1064.9159820110453 376.9776514110242 1074.7487767953403 376.9776514110242L1074.7487767953403 376.9776514110242Q1079.650923760264 376.9776514110242 1083.7550468006655 377.12015568326035Q1087.859169841067 377.29116080994373 1091.2792723747348 377.690172772205L1091.2792723747348 377.690172772205L1091.2792723747348 459.54462674465435Q1099.288012474407 462.5372164616137 1102.5941115902856 466.4703343753317L1102.5941115902856 466.4703343753317L1100.5990517789794 482.28830859354525L1053.2876333965748 482.28830859354525L1051.2925735852687 466.4703343753317Q1054.1141581755446 462.5372164616137 1062.6074128008195 459.54462674465435L1062.6074128008195 459.54462674465435L1062.6074128008195 402.4289144324021Q1055.3111940623282 400.03484265883463 1051.2925735852687 395.5032068017248ZM1160.1088358647992 483.8843564425903L1160.1088358647992 483.8843564425903Q1135.455596767944 483.8843564425903 1123.0292242289506 470.7739633968637Q1110.6028516899578 457.6350694966899 1110.6028516899578 432.5828184375732L1110.6028516899578 432.5828184375732Q1110.6028516899578 417.4488647260932 1114.934981565937 406.476035763909Q1119.2386105874689 395.5032068017248 1126.6488327437492 389.51802736780616L1126.6488327437492 389.51802736780616Q1140.9847625307068 378.08918473446624 1160.1088358647992 378.08918473446624L1160.1088358647992 378.08918473446624Q1172.8487178027117 378.08918473446624 1181.5984801180118 382.25030948376207Q1190.3767432877592 386.4114342330579 1194.9368799993163 396.1587264540111Q1199.4970167108734 405.9345195294116 1199.4970167108734 422.77852450772554L1199.4970167108734 422.77852450772554Q1199.4970167108734 437.598968820286 1184.8475775249963 437.598968820286L1184.8475775249963 437.598968820286L1140.3862445873149 437.598968820286Q1141.1842685118374 450.5383567393292 1147.0269436735198 455.8395156665143Q1152.8981196896495 461.1406745936994 1165.6095007731149 461.1406745936994L1165.6095007731149 461.1406745936994Q1172.5352084037922 461.1406745936994 1178.890898945525 459.48762503575995Q1185.2750903417048 457.83457547782047 1188.1536766408751 456.2385276287755L1188.1536766408751 456.2385276287755L1191.0607637944927 454.64247977973054L1197.1884475006477 470.9734693779943Q1196.0769141772057 472.25600782811966 1193.682842403638 474.5645770383455L1193.682842403638 474.5645770383455Q1192.086794554593 476.0751223240487 1187.1561467352221 478.2696881164856Q1182.2539997702982 480.4927547633697 1175.1857878673848 482.17430517575633Q1168.1175759644711 483.8843564425903 1160.1088358647992 483.8843564425903ZM1140.5857505684453 420.55545786084144L1140.5857505684453 420.55545786084144L1173.0482237838423 419.272919410716Q1173.4472357461036 416.76484421935965 1173.4472357461036 412.3472117800387L1173.4472357461036 412.3472117800387Q1173.4472357461036 408.24308873963736 1170.1411366302248 403.62595031918585L1170.1411366302248 403.62595031918585Q1166.835037514346 399.03731275318154 1158.712293996885 399.03731275318154L1158.712293996885 399.03731275318154Q1150.589550479424 399.03731275318154 1146.2859214578916 403.93945971810535Q1141.9822924363598 408.8416066830292 1140.5857505684453 420.55545786084144ZM1211.1253653253439 357.7395746591428L1211.1253653253439 357.7395746591428L1213.1204251366503 340.6960636996983L1306.6887302869116 340.6960636996983L1306.6887302869116 376.37913346763236L1291.583277429879 378.2886907155969Q1286.7666330282966 374.1845676751955 1283.9450484380209 363.0407335863279L1283.9450484380209 363.0407335863279L1251.9955906026742 363.0407335863279L1251.9955906026742 400.43385462109586L1280.4394433410114 400.43385462109586Q1283.0615219501567 394.2206683515994 1285.569597141513 391.79809572358465L1285.569597141513 391.79809572358465L1298.480484206109 393.2231384459463L1298.480484206109 429.7897347017445L1285.569597141513 431.3857825507895Q1283.0615219501567 429.47622530282496 1280.4394433410114 422.77852450772554L1280.4394433410114 422.77852450772554L1251.9955906026742 422.77852450772554L1251.9955906026742 456.83704557216737Q1265.7330024462397 459.94363870691564 1271.8321852979473 465.2447976341007L1271.8321852979473 465.2447976341007L1269.8371254866413 482.28830859354525L1213.1204251366503 482.28830859354525L1211.1253653253439 465.2447976341007Q1213.8044456433836 461.7391925370912 1222.4402045408947 458.43309342121233L1222.4402045408947 458.43309342121233L1222.4402045408947 364.6652822898201Q1213.9184490611726 361.6441917184136 1211.1253653253439 357.7395746591428ZM1314.7259712410312 352.4384157319577L1314.7259712410312 352.4384157319577L1316.7210310523371 336.59194065929694Q1328.3493796668079 333.8843594868099 1338.1536735966554 333.8843594868099L1338.1536735966554 333.8843594868099Q1347.9864683809503 333.8843594868099 1354.6841691760499 334.48287743020177L1354.6841691760499 334.48287743020177L1354.6841691760499 459.54462674465435Q1362.721410130169 462.5372164616137 1366.027509246048 466.4703343753317L1366.027509246048 466.4703343753317L1364.0039485802945 482.28830859354525L1316.7210310523371 482.28830859354525L1314.7259712410312 466.4703343753317Q1317.5190549768597 462.5372164616137 1326.040810456582 459.54462674465435L1326.040810456582 459.54462674465435L1326.040810456582 359.33562250818784Q1318.7160908636436 356.94155073462036 1314.7259712410312 352.4384157319577ZM1374.8342732702424 395.5032068017248L1374.8342732702424 395.5032068017248L1376.8293330815488 379.6852325835112Q1388.4576816960196 376.9776514110242 1398.2904764803143 376.9776514110242L1398.2904764803143 376.9776514110242Q1403.192623445238 376.9776514110242 1407.2967464856395 377.12015568326035Q1411.400869526041 377.29116080994373 1414.8209720597085 377.690172772205L1414.8209720597085 377.690172772205L1414.8209720597085 459.54462674465435Q1422.8297121593807 462.5372164616137 1426.1358112752598 466.4703343753317L1426.1358112752598 466.4703343753317L1424.1407514639534 482.28830859354525L1376.8293330815488 482.28830859354525L1374.8342732702424 466.4703343753317Q1377.6558578605186 462.5372164616137 1386.1491124857937 459.54462674465435L1386.1491124857937 459.54462674465435L1386.1491124857937 402.4289144324021Q1378.8528937473022 400.03484265883463 1374.8342732702424 395.5032068017248ZM1486.4436192856017 419.8714373541079L1486.4436192856017 419.8714373541079L1489.2652038758781 419.8714373541079Q1490.775749161581 414.3422715913449 1495.2788841642437 407.13155541619534L1495.2788841642437 407.13155541619534L1498.9839952423838 401.43138452674896Q1493.0843183718068 398.723803354262 1490.5762431804503 395.5032068017248L1490.5762431804503 395.5032068017248L1492.5713029917567 379.6852325835112L1537.745157290619 379.6852325835112L1539.7687179563723 395.5032068017248Q1535.7500974793127 401.03237256448773 1523.1242189591892 404.33847168036664L1523.1242189591892 404.33847168036664L1505.0831780940914 429.59022872061394L1524.4352582637616 458.0340814589511Q1535.550591498182 461.1406745936994 1539.968223937503 466.4703343753317L1539.968223937503 466.4703343753317L1537.9731641261967 482.28830859354525L1490.775749161581 482.28830859354525L1488.6666859324857 466.4703343753317Q1490.8612517249228 463.7627532028447 1496.2764140698966 461.1406745936994L1496.2764140698966 461.1406745936994L1491.1747611238422 452.732922531766Q1487.5551526090437 446.80474480674184 1485.84510134221 440.5915585372453L1485.84510134221 440.5915585372453L1485.246583398818 438.5964987259391L1482.3394962452005 438.5964987259391Q1480.3444364338945 445.721712337747 1476.3258159568347 452.3339105695048L1476.3258159568347 452.3339105695048L1471.4236689919107 460.1431446880463Q1478.3493766225881 463.2497378227945 1480.942954377286 466.4703343753317L1480.942954377286 466.4703343753317L1478.833891148191 482.28830859354525L1433.6600368493287 482.28830859354525L1431.6364761835755 466.4703343753317Q1435.5695940972935 461.34018057482996 1447.083939293975 458.0340814589511L1447.083939293975 458.0340814589511L1466.5215220269868 429.59022872061394L1448.4804811618894 404.33847168036664Q1436.1681120406854 401.03237256448773 1431.8359821647061 395.5032068017248L1431.8359821647061 395.5032068017248L1433.9450453938011 379.6852325835112L1481.1424603584167 379.6852325835112L1483.137520169723 395.5032068017248Q1480.3444364338945 398.60979993647305 1476.126309975704 400.6333606022265L1476.126309975704 400.6333606022265L1480.4584398516834 406.73254345393406Q1484.4485594742957 412.8602271600889 1486.4436192856017 419.8714373541079Z " fill="#FFFFFFFF" transform="matrix(0.5681935010644865,0,0,0.5681935010644864,0,67.67455656688163)"/></g></svg>